<svg width="120" height="24" viewBox="0 0 120 24" fill="none" xmlns="http://www.w3.org/2000/svg">
<g clip-path="url(#clip0_1_1802)">
<path d="M93.3902 3.48487C93.3902 1.81142 92.165 0.453918 90.655 0.453918H70.4082C68.8964 0.453918 67.673 1.81142 67.673 3.48487C67.673 5.15833 68.8964 6.51583 70.4082 6.51583H90.655C92.165 6.51583 93.3902 5.15649 93.3902 3.48487Z" fill="white"/>
<path d="M67.673 20.5005C67.673 22.1831 68.9037 23.5461 70.4284 23.5461H90.6421C92.1594 23.5461 93.3975 22.1831 93.3975 20.5005C93.3975 18.8197 92.1668 17.4548 90.6421 17.4548H70.421C68.9037 17.464 67.673 18.8197 67.673 20.5005Z" fill="white"/>
<path d="M93.3902 11.9991C93.3902 10.4083 92.2256 9.11694 90.7891 9.11694H70.2741C68.8376 9.11694 67.673 10.4028 67.673 11.9991C67.673 13.5917 68.8376 14.8831 70.2741 14.8831H90.7891C92.2256 14.8923 93.3902 13.5917 93.3902 11.9991Z" fill="white"/>
<path d="M112.943 12.0009L118.507 6.44233C118.843 6.10592 119.111 5.70645 119.293 5.26675C119.475 4.82706 119.569 4.35576 119.569 3.8798C119.569 3.40383 119.475 2.93254 119.293 2.49284C119.111 2.05315 118.843 1.65368 118.507 1.31726L118.455 1.26583C118.119 0.929128 117.719 0.662028 117.28 0.479793C116.84 0.297557 116.369 0.203759 115.893 0.203759C115.417 0.203759 114.945 0.297557 114.506 0.479793C114.066 0.662028 113.667 0.929128 113.33 1.26583L107.764 6.82993L102.2 1.25848C101.864 0.921781 101.464 0.654681 101.025 0.472445C100.585 0.29021 100.114 0.196411 99.6376 0.196411C99.1617 0.196411 98.6904 0.29021 98.2507 0.472445C97.811 0.654681 97.4115 0.921781 97.0751 1.25848L97.0237 1.30991C96.687 1.64633 96.4199 2.0458 96.2376 2.48549C96.0554 2.92519 95.9616 3.39649 95.9616 3.87245C95.9616 4.34841 96.0554 4.81971 96.2376 5.25941C96.4199 5.6991 96.687 6.09857 97.0237 6.43499L102.588 12.0009L97.0237 17.565C96.687 17.9014 96.4199 18.3009 96.2376 18.7406C96.0554 19.1803 95.9616 19.6516 95.9616 20.1276C95.9616 20.6035 96.0554 21.0748 96.2376 21.5145C96.4199 21.9542 96.687 22.3537 97.0237 22.6901L97.0751 22.7415C97.4115 23.0782 97.811 23.3453 98.2507 23.5276C98.6904 23.7098 99.1617 23.8036 99.6376 23.8036C100.114 23.8036 100.585 23.7098 101.025 23.5276C101.464 23.3453 101.864 23.0782 102.2 22.7415L107.764 17.1774L113.339 22.7415C113.676 23.0782 114.075 23.3453 114.515 23.5276C114.955 23.7098 115.426 23.8036 115.902 23.8036C116.378 23.8036 116.849 23.7098 117.289 23.5276C117.729 23.3453 118.128 23.0782 118.464 22.7415L118.516 22.6901C118.853 22.3537 119.12 21.9542 119.302 21.5145C119.484 21.0748 119.578 20.6035 119.578 20.1276C119.578 19.6516 119.484 19.1803 119.302 18.7406C119.12 18.3009 118.853 17.9014 118.516 17.565L112.943 12.0009Z" fill="white"/>
<path d="M64.7026 6.10433C65.0899 5.31871 65.2106 4.42832 65.0467 3.56794C64.8827 2.70756 64.4429 1.92401 63.7938 1.3359C63.1448 0.747792 62.3218 0.387132 61.4494 0.30851C60.5771 0.229889 59.7029 0.437586 58.9592 0.900165C58.2154 1.36274 57.6426 2.05502 57.3274 2.87222C57.0122 3.68942 56.9718 4.58705 57.2124 5.42925C57.4529 6.27144 57.9612 7.01236 58.6604 7.53986C59.3597 8.06736 60.2117 8.35272 61.0875 8.35275C61.172 8.35275 61.2565 8.35275 61.341 8.35275V13.588L64.7026 6.10433Z" fill="white"/>
<path d="M36.9391 2.61046C36.4896 1.64705 35.6761 0.901426 34.6773 0.537369C33.6784 0.173312 32.576 0.220587 31.612 0.668811C30.6485 1.11829 29.9029 1.93179 29.5389 2.93062C29.1748 3.92945 29.2221 5.03195 29.6703 5.99595L36.8491 21.3932C37.3346 22.2947 38.1462 22.9766 39.1179 23.2996C40.0895 23.6226 41.1479 23.5621 42.0765 23.1307C43.0051 22.6992 43.7338 21.9293 44.1135 20.9785C44.4933 20.0276 44.4955 18.9675 44.1197 18.0151L36.9391 2.61046Z" fill="white"/>
<path d="M50.8062 2.61047C50.3563 1.64739 49.5428 0.902096 48.5441 0.53809C47.5454 0.174084 46.4431 0.221099 45.479 0.66882C44.516 1.11868 43.7707 1.9322 43.4067 2.93089C43.0427 3.92958 43.0897 5.03188 43.5374 5.99595L50.6996 21.3969C51.1491 22.3603 51.9626 23.1059 52.9614 23.47C53.9603 23.834 55.0628 23.7868 56.0268 23.3385C56.9902 22.889 57.7359 22.0756 58.1002 21.0769C58.4646 20.0782 58.4179 18.9757 57.9703 18.0114L50.8062 2.61047Z" fill="white"/>
<path d="M16.1798 23.5461C24.9641 23.5461 30.7743 14.4239 27.0618 6.46255L25.2635 2.60497C24.814 1.64155 24.0005 0.895932 23.0017 0.531875C22.0028 0.167819 20.9003 0.215094 19.9363 0.663318C18.9733 1.11318 18.228 1.9267 17.864 2.92539C17.5 3.92408 17.547 5.02638 17.9947 5.99045L19.7931 9.84803C20.0784 10.4551 20.2056 11.1245 20.1628 11.7939C20.1199 12.4633 19.9085 13.111 19.548 13.6767C19.1876 14.2424 18.69 14.7078 18.1014 15.0295C17.5128 15.3513 16.8524 15.5189 16.1816 15.5168C15.4246 15.5172 14.6831 15.3013 14.0446 14.8945C13.4061 14.4877 12.8971 13.907 12.5775 13.2207L7.62699 2.61048C7.39905 2.12142 7.07485 1.68334 6.67376 1.32242C6.27268 0.961505 5.80294 0.685163 5.29262 0.509915C4.78231 0.334666 4.2419 0.264108 3.7037 0.302459C3.16549 0.34081 2.64055 0.487283 2.16024 0.733122C0.22043 1.7214 -0.529043 4.11677 0.391266 6.08965L5.29774 16.6135C6.26397 18.6847 7.80113 20.4373 9.72872 21.6653C11.6563 22.8933 13.8943 23.5458 16.1798 23.5461Z" fill="white"/>
</g>
<defs>
<clipPath id="clip0_1_1802">
<rect width="120" height="23.6072" fill="white" transform="translate(0 0.196411)"/>
</clipPath>
</defs>
</svg>
